<?xml version="1.0" encoding="UTF-8"?>
<svg version="1.1" xmlns="http://www.w3.org/2000/svg" width="1400" height="479">
<path d="M0 0 C3.50279081 2.86285787 6.72668259 5.86696763 10 9 C10.33 4.05 10.66 -0.9 11 -6 C21.56 -6 32.12 -6 43 -6 C43 35.91 43 77.82 43 121 C32.44 121 21.88 121 11 121 C10.505 113.575 10.505 113.575 10 106 C9.0925 107.010625 8.185 108.02125 7.25 109.0625 C-2.90376997 119.17524464 -14.8368621 123.23976812 -28.8125 123.4375 C-45.14170984 123.34265027 -57.8115908 117.6005779 -69.6796875 106.4765625 C-82.85347664 92.41564951 -87.43040013 73.2148561 -87.21484375 54.4375 C-86.09367341 36.49877454 -80.53774563 18.19763904 -66.99609375 5.62109375 C-48.17657988 -9.66285587 -20.98535212 -13.64711981 0 0 Z M-48 34 C-54.19159719 44.40473 -55.62108003 55.64449036 -53.31640625 67.5234375 C-50.51316793 77.50343117 -45.59016104 85.08274315 -37 91 C-29.7466403 94.88572841 -22.08651977 94.99119752 -14 94 C-5.42843581 91.36566595 1.03939319 86.44688685 6 79 C11.82988761 67.73115018 12.39444734 56.08634019 9.03125 43.95703125 C5.66565844 34.30645242 -0.00450704 27.49151164 -9.19140625 22.90625 C-23.7221067 17.29152496 -38.2144494 22.38076063 -48 34 Z " fill="#323232" transform="translate(1149,205)"/>
<path d="M0 0 C3.15541182 2.54542668 6.05742023 5.20213727 9 8 C9.33 3.05 9.66 -1.9 10 -7 C20.56 -7 31.12 -7 42 -7 C42 34.91 42 76.82 42 120 C31.44 120 20.88 120 10 120 C9.505 112.575 9.505 112.575 9 105 C8.0925 106.010625 7.185 107.02125 6.25 108.0625 C-3.90376997 118.17524464 -15.8368621 122.23976812 -29.8125 122.4375 C-46.14170984 122.34265027 -58.8115908 116.6005779 -70.6796875 105.4765625 C-83.75152213 91.52446965 -88.75952241 71.85691274 -88.22265625 53.11328125 C-86.82348707 33.54945959 -80.56214102 16.55058854 -66 3 C-46.99792567 -11.99578047 -20.1580033 -13.52865995 0 0 Z M-48 32 C-54.76671888 42.98345318 -56.79521755 53.74693581 -54.31640625 66.5234375 C-51.51316793 76.50343117 -46.59016104 84.08274315 -38 90 C-30.7466403 93.88572841 -23.08651977 93.99119752 -15 93 C-6.42843581 90.36566595 0.03939319 85.44688685 5 78 C10.90903012 66.5781721 11.52064818 54.24407593 8.1015625 41.92578125 C4.72149679 32.94823085 -1.5206192 26.13826363 -10.12109375 21.97265625 C-23.9025597 16.64185748 -38.60598177 20.70893731 -48 32 Z " fill="#323232" transform="translate(708,206)"/>
<path d="M0 0 C2.15796759 1.91493434 4.06347174 3.85411733 6 6 C6.33 1.05 6.66 -3.9 7 -9 C17.56 -9 28.12 -9 39 -9 C39 32.91 39 74.82 39 118 C28.44 118 17.88 118 7 118 C6.505 110.575 6.505 110.575 6 103 C5.05125 104.03125 4.1025 105.0625 3.125 106.125 C-6.85134767 116.02137695 -19.07451309 120.35532477 -32.9375 120.5 C-48.45804323 120.33826751 -61.3910389 115.05461947 -72.76953125 104.44140625 C-86.13332112 89.81379037 -91.51628595 70.75528104 -90.92602539 51.14916992 C-90.07615364 33.65643326 -84.87595525 16.84562492 -72.33203125 4.109375 C-52.11240222 -14.17973668 -21.93553335 -16.91546104 0 0 Z M-51 30 C-57.67205274 40.27724506 -59.32827113 51.08160816 -57.53515625 63.12109375 C-55.23722015 73.79493893 -49.93424918 81.69648576 -41 88 C-34.15761912 92.26321292 -25.7588054 91.73574879 -18 91 C-9.7248581 88.97932581 -2.90264086 83.15464843 1.8125 76.1875 C8.02210672 65.21579623 8.72056383 53.20542503 5.375 41.125 C2.01259429 31.44926608 -3.8512188 24.4824026 -13.125 19.96484375 C-27.0352065 14.62431804 -41.42571093 18.78825706 -51 30 Z " fill="#323232" transform="translate(415,208)"/>
<path d="M0 0 C10.56 0 21.12 0 32 0 C32.33 18.48 32.66 36.96 33 56 C35.31 53.69 37.62 51.38 40 49 C53.3358077 40.57496154 66.61346122 38.24163779 82.0625 41.1875 C93.53701507 43.89328085 103.12336006 49.04960444 110.01171875 58.8671875 C116.46706781 69.50430356 119.17065569 79.14000076 119.11352539 91.57568359 C119.11367142 92.41536682 119.11381744 93.25505005 119.1139679 94.12017822 C119.11327445 96.87962479 119.10550874 99.63900281 119.09765625 102.3984375 C119.09579005 104.31800296 119.0943671 106.2375689 119.09336853 108.15713501 C119.08955925 113.1975436 119.07974257 118.23792316 119.06866455 123.27832031 C119.05841623 128.4264283 119.05386359 133.57454099 119.04882812 138.72265625 C119.03811883 148.81511894 119.02053494 158.90755251 119 169 C108.44 169 97.88 169 87 169 C86.98541748 166.68427979 86.97083496 164.36855957 86.95581055 161.98266602 C86.90533528 154.30714441 86.83871772 146.63182292 86.76428509 138.95649815 C86.71967429 134.3057334 86.68039797 129.65505438 86.65356445 125.00415039 C86.62743843 120.51061823 86.58697105 116.01741762 86.53681374 111.52409172 C86.52020766 109.81505413 86.50865458 108.10595927 86.50238609 106.39685249 C86.45241939 94.01893419 86.15022082 83.15022082 76.8125 73.8125 C70.08902668 69.47959497 62.92609208 67.9692526 55 69 C47.88037182 70.56140811 42.86973277 73.04955511 38.3671875 78.85546875 C33.53014968 86.44270807 32.90215072 94.63700494 32.79467773 103.49584961 C32.78477814 104.20888245 32.77487854 104.92191528 32.76467896 105.65655518 C32.73335968 107.98845216 32.70842495 110.32036944 32.68359375 112.65234375 C32.6629986 114.27902219 32.6420015 115.90569559 32.62062073 117.53236389 C32.56566433 121.79509371 32.5161395 126.0578697 32.46777344 130.32067871 C32.4084874 135.4453354 32.34240615 140.5699085 32.27747345 145.69449615 C32.17979694 153.46294599 32.09071348 161.23145168 32 169 C21.44 169 10.88 169 0 169 C0 113.23 0 57.46 0 0 Z " fill="#323232" transform="translate(778,157)"/>
<path d="M0 0 C11.96072856 9.85688705 17.34553827 22.61951596 19.18850517 37.78620911 C19.52239062 41.2698418 19.52944226 44.73146681 19.51196289 48.22851562 C19.51210892 49.00996948 19.51225494 49.79142334 19.5124054 50.59655762 C19.51171505 53.15033861 19.50396425 55.70404442 19.49609375 58.2578125 C19.49422645 60.03999797 19.49280402 61.82218395 19.49180603 63.60437012 C19.48800546 68.27320802 19.47819641 72.94201434 19.46710205 77.61083984 C19.45683481 82.38378472 19.45229707 87.15673474 19.44726562 91.9296875 C19.43657173 101.27866187 19.41899509 110.62760461 19.3984375 119.9765625 C8.8384375 119.9765625 -1.7215625 119.9765625 -12.6015625 119.9765625 C-13.42711053 109.64714443 -13.70154598 99.38094111 -13.77734375 89.01953125 C-13.78915845 87.64844576 -13.80119469 86.27736217 -13.81344604 84.90628052 C-13.86290529 79.21887225 -13.91205921 73.5316135 -13.92749023 67.84399414 C-13.93765123 64.32393828 -13.96714018 60.80448018 -14.00881004 57.28466225 C-14.02679579 55.32910972 -14.02449688 53.37340342 -14.02156067 51.41777039 C-14.1363132 43.00607682 -14.80188244 34.42689194 -20.48139954 27.77482605 C-26.18908127 22.28657919 -32.06255985 19.89594898 -39.9140625 19.5390625 C-47.86749653 19.81484038 -55.01059165 21.77944822 -60.6015625 27.6640625 C-68.14946966 36.4762441 -67.07400136 48.28581037 -67.11328125 59.13671875 C-67.13014813 60.89506773 -67.14830105 62.6534048 -67.16767883 64.41172791 C-67.21496699 69.01309486 -67.24491287 73.61441351 -67.27111816 78.21594238 C-67.30103118 82.92205338 -67.34752435 87.62799828 -67.39257812 92.33398438 C-67.47837006 101.54810879 -67.5442873 110.76221665 -67.6015625 119.9765625 C-78.4915625 119.9765625 -89.3815625 119.9765625 -100.6015625 119.9765625 C-100.6015625 78.0665625 -100.6015625 36.1565625 -100.6015625 -7.0234375 C-89.7115625 -7.0234375 -78.8215625 -7.0234375 -67.6015625 -7.0234375 C-67.1065625 -0.5884375 -67.1065625 -0.5884375 -66.6015625 5.9765625 C-64.714375 4.15125 -64.714375 4.15125 -62.7890625 2.2890625 C-45.71178292 -12.85797512 -18.42306109 -13.00125933 0 0 Z " fill="#323232" transform="translate(582.6015625,206.0234375)"/>
<path d="M0 0 C9.79966179 8.10105375 15.59477696 19.73950759 17.59375 32.25 C17.68184296 35.10998655 17.72019784 37.94456367 17.70727539 40.80395508 C17.70742142 41.65324585 17.70756744 42.50253662 17.7077179 43.37756348 C17.70702319 46.17491237 17.69925149 48.97219404 17.69140625 51.76953125 C17.6895405 53.7129462 17.68811734 55.65636163 17.68711853 57.59977722 C17.68330571 62.70760401 17.67348597 67.81540224 17.66241455 72.92321777 C17.65217387 78.13826104 17.64761522 83.35330894 17.64257812 88.56835938 C17.6318626 98.79558747 17.61427579 109.02278689 17.59375 119.25 C7.03375 119.25 -3.52625 119.25 -14.40625 119.25 C-14.4155957 116.94475342 -14.42494141 114.63950684 -14.43457031 112.2644043 C-14.46847143 104.61281719 -14.52409266 96.96149607 -14.59015274 89.31012249 C-14.62951345 84.67507789 -14.66175751 80.04022002 -14.67724609 75.4050293 C-14.6924883 70.92438703 -14.72706631 66.44425855 -14.77455902 61.96384621 C-14.78929532 60.26204733 -14.79728652 58.56017507 -14.79813385 56.85831261 C-14.80997492 44.99118502 -15.16688596 33.7406906 -23.83203125 24.6171875 C-29.57961166 19.62549236 -36.33068684 18.86044159 -43.65234375 18.98046875 C-50.62124551 19.66253148 -56.57423692 21.83228917 -61.40625 27 C-69.81769938 37.88658878 -68.57824682 51.57007259 -68.72265625 64.66015625 C-68.74326393 66.23913571 -68.76426129 67.81811012 -68.78562927 69.39707947 C-68.8404566 73.52497233 -68.89003699 77.65291168 -68.93847656 81.78088379 C-68.99788287 86.74873616 -69.06389134 91.71650478 -69.12877655 96.68428802 C-69.22629005 104.20614027 -69.31548449 111.72804968 -69.40625 119.25 C-79.96625 119.25 -90.52625 119.25 -101.40625 119.25 C-101.40625 77.34 -101.40625 35.43 -101.40625 -7.75 C-90.84625 -7.75 -80.28625 -7.75 -69.40625 -7.75 C-68.91125 -0.82 -68.91125 -0.82 -68.40625 6.25 C-67.41625 5.198125 -66.42625 4.14625 -65.40625 3.0625 C-48.19061125 -14.04943008 -19.2153481 -13.97479862 0 0 Z " fill="#323232" transform="translate(1025.40625,206.75)"/>
<path d="M0 0 C4.4694138 2.44753613 6.91644807 6.15980746 9.046875 10.68359375 C10.29798208 15.03683109 10.51495343 19.11243786 10.5625 23.625 C10.57708252 24.42429932 10.59166504 25.22359863 10.60668945 26.04711914 C10.48533926 33.17736253 8.27268588 38.36846898 3.625 43.75 C-3.66666667 50 -3.66666667 50 -7 50 C-7.24363281 50.56589844 -7.48726562 51.13179688 -7.73828125 51.71484375 C-10.81511413 57.2874358 -16.00199668 61.77899797 -21.375 65.0625 C-26.24969771 66.32319768 -30.99332554 66.61387569 -36 66 C-36.99 65.34 -37.98 64.68 -39 64 C-39.99 64 -40.98 64 -42 64 C-42.29132813 64.66386719 -42.58265625 65.32773437 -42.8828125 66.01171875 C-45.52241006 71.69764432 -47.61622647 75.66206041 -53 79 C-56.52453161 79.92750832 -58.99371438 80.19634841 -62.5625 79.5 C-71.32113281 74.11007212 -72.96121688 65.69792517 -75.38232422 56.37304688 C-76.21751951 53.16431241 -77.09606082 49.96824664 -77.98022461 46.77270508 C-78.39688156 45.26368435 -78.80822986 43.75318325 -79.21313477 42.2409668 C-80.19165717 38.63922453 -81.29477035 35.23260736 -82.73046875 31.78515625 C-84.03163314 27.90568458 -84.23337193 26.66428902 -82.6875 23 C-82.38199219 22.236875 -82.07648437 21.47375 -81.76171875 20.6875 C-81.51035156 20.130625 -81.25898437 19.57375 -81 19 C-80.34 19 -79.68 19 -79 19 C-75.29245008 29.43465079 -72.12541473 39.81121138 -69.82543945 50.65307617 C-68.56439254 56.38049359 -66.94078263 61.88309642 -64 67 C-60.79745853 68.60127074 -58.54685436 68.40701607 -55 68 C-48.55505953 64.53806807 -45.77716603 58.47578806 -43 52 C-39.62537285 52.54723683 -37.91765 53.0549 -35 55 C-28.54350149 55.64564985 -25.32925623 54.65733271 -20 51 C-18.14140661 49.39827526 -18.14140661 49.39827526 -17 48 C-17.48726562 47.47019531 -17.97453125 46.94039063 -18.4765625 46.39453125 C-21.38541557 41.8224109 -20.48986864 36.22950678 -20 31 C-19.26515432 28.33674112 -18.35400164 26.43720295 -17 24 C-15.71963884 21.43927767 -16.03906161 19.78992425 -16.1875 16.9375 C-16.23276054 11.19695501 -15.16471455 6.81946726 -12 2 C-8.06723492 -1.61389224 -5.03679464 -1.34914142 0 0 Z M-11.3125 11.0625 C-13.25165093 14.43805902 -13.69763318 17.14482309 -14 21 C-13.319375 20.649375 -12.63875 20.29875 -11.9375 19.9375 C-8.1929519 18.74243146 -5.78194028 19.00099691 -2 20 C0.2384589 23.16446633 0.21528718 25.95793831 0.125 29.75 C0.10695313 30.73484375 0.08890625 31.7196875 0.0703125 32.734375 C0.03550781 33.85585938 0.03550781 33.85585938 0 35 C2.64752004 32.42215154 4.94432065 30.08351902 7 27 C6.86378495 20.05303232 3.79665467 14.88686934 -0.9375 10 C-5.04355278 8.00918653 -7.87386595 7.99561017 -11.3125 11.0625 Z M-16 31 C-17.14768913 33.48250172 -17.14768913 33.48250172 -17 36 C-16.01 37.485 -16.01 37.485 -15 39 C-9.39068764 39.66223424 -9.39068764 39.66223424 -4.5 37.3125 C-2.70731402 34.54877578 -2.41993788 33.23177469 -3 30 C-4.14646548 28.10338257 -4.14646548 28.10338257 -6 27 C-10.78447394 27 -12.35345986 28.00173367 -16 31 Z " fill="#323232" transform="translate(1097,346)"/>
<path d="M0 0 C4.41843353 3.7920227 6.62825507 8.37548695 7.21875 14.1328125 C7.484102 20.6560492 5.79843003 25.27134754 2.1875 30.75 C-2.31124694 35.37728256 -7.93703643 37.09676923 -14.25 37.3125 C-19.93771824 37.2283068 -24.43384978 35.43879785 -28.57421875 31.50390625 C-33.78695668 25.5144853 -33.52462772 19.58692401 -33 12 C-31.2244922 6.11863041 -26.86051987 2.52225053 -22 -1 C-14.84046243 -4.43061175 -6.84326208 -3.91252885 0 0 Z " fill="#0BDAA8" transform="translate(360,133)"/>
<path d="M0 0 C5.39674323 2.58593946 8.54466168 6.89883863 10.9375 12.3125 C12.39024709 16.84577105 12.42374004 20.88789497 11 25.4375 C7.26353233 32.38558034 1.76824865 36.9571166 -5.5 39.8125 C-10.74684967 40.74943744 -14.35546149 40.25976926 -19.125 37.875 C-23.3533309 34.29011076 -26.44863042 31.25007864 -27.27490234 25.53662109 C-27.95638231 17.25387162 -28.10158893 9.33153909 -23 2.4375 C-16.65314292 -2.36461938 -7.54077746 -1.52168155 0 0 Z " fill="#0BDAA8" transform="translate(309,135.5625)"/>
<path d="M0 0 C5.03905091 0.03831978 7.82531546 3.04767859 11.3671875 6.32421875 C13.85524279 9.28201062 15.10446882 11.8737319 15.4375 15.73828125 C14.70022603 24.14013249 10.22601595 28.90219371 4.1875 34.4375 C-0.29133319 38.13887535 -3.30251351 39.81021581 -9.1875 39.4375 C-13.54225957 38.80605986 -16.42807775 37.56033227 -19.75 34.5625 C-22.84584146 27.25376087 -22.88270634 18.64827544 -21.16796875 10.94921875 C-19.45838262 6.80405785 -17.34512072 5.03377381 -13.3125 3.125 C-8.84903575 1.47482674 -4.6937292 0.70405938 0 0 Z " fill="#0BDAA8" transform="translate(304.75,93.4375)"/>
<path d="M0 0 C4.30551408 3.36953276 6.45384821 6.76026339 8 12 C8.49795586 17.86055747 7.53511525 21.94629148 3.75 26.5 C0.07472682 30.46799405 -3.17903668 31.82809786 -8.55859375 32.3359375 C-9.83863281 32.34882812 -11.11867188 32.36171875 -12.4375 32.375 C-13.71496094 32.40335938 -14.99242187 32.43171875 -16.30859375 32.4609375 C-21.74127001 31.78257158 -24.75365238 29.41477298 -28.3125 25.375 C-32.10693868 20.03467889 -31.56629996 14.37669268 -31 8 C-29.54474338 3.97353869 -26.66061086 1.1533005 -23 -1 C-15.15174789 -4.38901796 -7.58034072 -3.60899587 0 0 Z " fill="#0BDAA8" transform="translate(409,86)"/>
<path d="M0 0 C3.79236867 3.48487932 4.76281572 6.67913442 5.09375 11.66796875 C4.84301245 17.90506527 1.97426848 22.9944812 -2.203125 27.5234375 C-7.54641965 31.9142318 -14.33756843 32.64475144 -21 32 C-26.67430855 30.26885502 -29.82693758 28.03956973 -33 23 C-34.68085448 17.49053253 -34.19931445 12.40802784 -32.1328125 7.07421875 C-29.3320462 1.94591908 -24.97358716 -0.85229906 -19.625 -2.9375 C-12.68121379 -4.93664799 -6.07346723 -3.95481587 0 0 Z " fill="#0BDAA8" transform="translate(360,92)"/>
<path d="M0 0 C4.85289555 1.92072498 8.08446051 4.62669076 11 9 C12.19104332 12.57312995 12.20528823 15.54553322 12.25 19.3125 C12.27578125 20.60800781 12.3015625 21.90351563 12.328125 23.23828125 C11.86932115 28.49813962 10.3668046 31.73570574 6.5 35.3125 C2.30025311 38.14732915 -1.01057209 38.4089695 -6 38 C-10.57787357 36.659093 -14.01428734 34.71706568 -16.5 30.5625 C-19.1153926 24.31591501 -19.0958512 17.04621983 -17.33984375 10.5625 C-14.10580178 3.17040407 -8.22904457 -1.32252502 0 0 Z " fill="#0BDAA8" transform="translate(267,187)"/>
<path d="M0 0 C3.50408305 5.35918584 2.82449167 12.55364703 2.0625 18.625 C-0.42852153 25.0578578 -3.65583066 31.07689585 -8.9375 35.625 C-13.26718327 36.95721024 -16.07798113 36.85394161 -20.125 35 C-24.24149426 32.70242181 -26.82350187 29.85299625 -28.9375 25.625 C-29.73160636 16.57218746 -26.28578687 9.34302071 -20.69921875 2.29296875 C-15.42703865 -2.69865187 -6.13986813 -4.35732577 0 0 Z " fill="#0BDAA8" transform="translate(276.9375,144.375)"/>
<path d="M0 0 C4.17087733 0.83417547 6.50212114 2.38339074 9.125 5.625 C12.7852785 11.52490096 16.43491622 17.49323393 15.125 24.625 C13.4779886 28.24842508 11.6922657 30.79316086 8.125 32.625 C3.10202001 33.34256857 3.10202001 33.34256857 0.125 32.625 C-4.3937477 28.60833538 -6.01522674 24.30220259 -7.875 18.625 C-9.195 21.925 -10.515 25.225 -11.875 28.625 C-16.89735846 27.62052831 -18.38387072 27.11612928 -21.875 23.625 C-24.80837609 18.26400232 -25.91455605 13.67040418 -24.37109375 7.6640625 C-23.6875 5.75 -23.6875 5.75 -21.875 2.625 C-19.53125 1.71484375 -19.53125 1.71484375 -16.875 1.625 C-14.63671875 3.05859375 -14.63671875 3.05859375 -12.5625 5.0625 C-11.86511719 5.72121094 -11.16773438 6.37992188 -10.44921875 7.05859375 C-9.66998047 7.83396484 -9.66998047 7.83396484 -8.875 8.625 C-7.6153683 6.73555246 -6.36413283 4.84045398 -5.125 2.9375 C-2.875 0.625 -2.875 0.625 0 0 Z " fill="#0BDAA8" transform="translate(235.875,238.375)"/>
<path d="M0 0 C3.85374367 3.22881227 5.92834776 6.48513416 6.69921875 11.40625 C6.94812258 17.10528937 6.202315 20.54899077 2.3125 24.9375 C-1.89777466 29.17903907 -5.96185779 32.13498301 -11.6875 33.9375 C-15.34425703 33.9375 -16.51650075 33.07668544 -19.375 30.75 C-23.92294738 25.21871265 -24.1564703 19.73859847 -23.984375 12.77734375 C-23.55629848 8.68245393 -22.64497207 6.82455607 -19.6875 3.9375 C-13.36758303 -0.18418498 -7.42283777 -2.93461028 0 0 Z " fill="#0BDAA8" transform="translate(272.6875,105.0625)"/>
<path d="M0 0 C3.20962574 3.37010702 4.24812206 6.00985437 4.4375 10.5625 C4.23458041 14.45724694 3.64658769 17.00053395 1 20 C-6.10448914 24.23246161 -13.45865578 25.15586321 -21.546875 23.46875 C-24.79074073 22.49347011 -27.36103293 21.51916074 -30 19.375 C-31.97840844 14.67627996 -32.79388874 9.98472185 -30.875 5.1875 C-23.19622841 -3.77106685 -10.34328381 -6.29176711 0 0 Z " fill="#0BDAA8" transform="translate(407,53)"/>
<path d="M0 0 C2.95388562 2.73774765 4.37386301 4.51192977 5.5625 8.375 C4.88038173 15.42355547 1.73008552 19.64937903 -3.4375 24.375 C-8.22838864 27.35311996 -15.26138691 28.01663901 -20.7578125 26.90625 C-24.8592579 25.51387739 -27.23804739 24.06929016 -29.4375 20.375 C-30.31371438 15.59134309 -29.9388605 11.4821711 -27.9375 7.0625 C-20.71488472 -0.70181142 -10.07709386 -4.7637171 0 0 Z " fill="#0BDAA8" transform="translate(357.4375,56.625)"/>
<path d="M0 0 C4.23350789 2.61216445 7.33950561 5.01851684 8.9375 9.8125 C9.49929775 16.77879213 9.49929775 16.77879213 7.375 20.6875 C2.8293097 24.65040949 -1.67110386 25.01043053 -7.5 24.6875 C-13.28115101 23.98867955 -18.39515638 22.72164248 -22.44140625 18.30859375 C-25.41235917 13.8469885 -26.08640273 9.05366544 -25.0625 3.8125 C-19.94004329 -3.25295753 -7.60461365 -2.98451578 0 0 Z " fill="#0BDAA8" transform="translate(444.0625,51.1875)"/>
<path d="M0 0 C2.91270361 3.37570563 4.0712154 6.69801249 5.375 10.9375 C5.58560059 11.62118652 5.79620117 12.30487305 6.01318359 13.00927734 C8.06805456 19.865448 9.68648798 26.8252419 11.21240234 33.81616211 C12.48941179 39.4999895 13.75571677 44.75571677 18 49 C22.49740578 49.44236778 24.96870228 49.48407852 29.0625 47.5625 C31.26879335 44.64449912 31.24884374 43.99973429 30.9375 40.5 C30.55805027 38.01012759 30.07700547 36.15091948 28.9296875 33.90234375 C27.51253612 31.0025424 28.18828966 29.05952359 29 26 C30.5625 23.125 30.5625 23.125 32 21 C36.2825473 26.2569471 38.46483345 32.61895583 37.9375 39.4375 C36.75556034 46.67045685 34.45521463 54.87540444 29 60 C25.93801565 61.82063934 24.14558973 62.00264709 20.5625 61.9375 C16.37752519 60.83619084 13.6607403 59.37362157 11 56 C7.50133083 49.07464738 5.74311226 41.57608003 4 34.0625 C2.34310722 26.94787524 0.46744657 20.16032526 -2.24267578 13.36669922 C-3.62770224 9.03837991 -2.69986898 5.60558178 -0.9375 1.5625 C-0.628125 1.046875 -0.31875 0.53125 0 0 Z " fill="#323232" transform="translate(1130,365)"/>
<path d="M0 0 C4.14613048 1.79037453 6.20962547 3.85386952 8 8 C8.57401052 11.44406313 8.74038319 13.77127896 6.8984375 16.828125 C2.72599064 21.96001152 -1.98339603 26.10619142 -8.375 28 C-13.51686233 28 -18.68713802 26.9664656 -22.6953125 23.55859375 C-24.88031175 20.9483701 -25.12869245 19.41034993 -25 16 C-19.45923949 7.37912728 -10.63873386 -0.93322227 0 0 Z " fill="#0BDAA8" transform="translate(313,63)"/>
<path d="M0 0 C4.03791236 3.41669508 5.44229884 7.84126428 6 13 C6 19.13925392 5.58105814 24.82736046 2 30 C-1.76952596 32.39732165 -4.58280961 32.14302826 -8.875 31.54296875 C-11.89099901 30.77233665 -13.2542615 29.54586865 -15 27 C-17.58550612 19.033846 -16.7441577 9.43947855 -13 2 C-9.71658017 -2.29370286 -4.75601833 -1.41016382 0 0 Z " fill="#0BDAA8" transform="translate(239,194)"/>
<path d="M0 0 C3.91014914 4.54081835 3.43935946 10.23197268 3.27734375 15.94140625 C2.77014843 21.53484198 0.66355251 24.56698149 -3.25 28.375 C-6.02823659 30.61760199 -7.04519343 31.00677901 -10.75 31.5625 C-14 31 -14 31 -15.875 29.75 C-19.44981595 24.18917518 -18.41715803 16.43697043 -17.25 10.25 C-16.27988443 6.3627537 -14.96813228 3.79852472 -12 1 C-7.87417129 -1.45319545 -4.56565587 -1.35278692 0 0 Z " fill="#0BDAA8" transform="translate(241,154)"/>
<path d="M0 0 C3.43056659 1.24084324 4.95741682 1.97357024 6.9375 5.0625 C6.83907981 7.96589548 6.53948805 10.26473587 5.9375 13.0625 C5.82148438 13.82433594 5.70546875 14.58617187 5.5859375 15.37109375 C4.4952056 21.71230962 2.36352698 25.55008022 -2.9375 29.4375 C-6.8352528 30.58389788 -10.29752047 30.98769088 -14 29.046875 C-17.07868035 26.91745442 -18.95657797 25.22138305 -21.0625 22.0625 C-20.9609375 19.5234375 -20.9609375 19.5234375 -20.0625 17.0625 C-18.1015625 15.7265625 -18.1015625 15.7265625 -15.6875 14.6875 C-10.9221274 12.29729734 -9.87007912 10.12372155 -8.0625 5.0625 C-4.22664687 0.0862581 -4.22664687 0.0862581 0 0 Z " fill="#0BDAA8" transform="translate(241.0625,116.9375)"/>
<path d="M0 0 C4.88194979 2.4409749 6.21961049 12.23339473 7.87207031 17.14160156 C11.75386459 29.33191009 13.96546823 41.17041858 8 53 C5.46975202 55.84652897 3.16697747 57.88868169 0 60 C-2.6875 60.125 -2.6875 60.125 -5 60 C-4.61328125 59.5875 -4.2265625 59.175 -3.828125 58.75 C1.56031459 52.77470065 5.44254629 47.77616266 5.0625 39.4375 C4.100991 31.51264165 1.57793626 23.15587252 -2 16 C-2.33 18.64 -2.66 21.28 -3 24 C-5.40656572 21.59343428 -5.74666344 19.69200735 -6.10546875 16.359375 C-5.84411544 10.5128046 -2.60064186 5.13067805 0 0 Z " fill="#323232" transform="translate(1181,369)"/>
<path d="M0 0 C2.9375 1.5 2.9375 1.5 5 3 C3.52057536 11.13683553 0.0736129 17.8310546 -6.4375 23.125 C-9.22145246 24.89884582 -10.18364841 25.00622537 -13.6875 25.125 C-17.67037986 23.77232382 -18.96530858 22.66244455 -21 19 C-21.49904591 16.01411186 -21.66859574 13.96924843 -19.90112305 11.40698242 C-18.37488666 9.74765147 -16.78507896 8.21272129 -15.125 6.6875 C-14.29162109 5.8821582 -14.29162109 5.8821582 -13.44140625 5.06054688 C-8.72923172 0.55843314 -6.56867525 -0.44533392 0 0 Z " fill="#0BDAA8" transform="translate(279,76)"/>
<path d="M0 0 C4.97649586 2.62648392 8.19579871 5.58739614 10 11 C11.00267151 18.87813327 7.79443438 24.22422431 4 31 C3.34 31 2.68 31 2 31 C-1.42572994 24.77557105 -2.38694913 19.12047091 -2.375 12.125 C-2.37628906 11.38773682 -2.37757813 10.65047363 -2.37890625 9.89086914 C-2.30320207 6.13275877 -2.08665791 3.18841328 0 0 Z " fill="#0BDAA8" transform="translate(211,197)"/>
<path d="M0 0 C3 2 3 2 4 5 C4.90782977 16.27803903 4.90782977 16.27803903 1 21 C-1.8125 20.9375 -1.8125 20.9375 -5 20 C-7.5779432 15.97196376 -8.14585093 14.18764325 -7.5625 9.4375 C-5.63623861 5.19972494 -3.45721899 3.08143432 0 0 Z " fill="#0BDAA8" transform="translate(217,162)"/>
<path d="M0 0 C3.33333333 1.66666667 6.66666667 3.33333333 10 5 C9.5504955 6.31554985 9.09010284 7.62738358 8.625 8.9375 C8.36976562 9.66839844 8.11453125 10.39929688 7.8515625 11.15234375 C7 13 7 13 5 14 C-0.41176471 10.70588235 -0.41176471 10.70588235 -2.5625 8.125 C-3.24579161 4.80615502 -1.66437245 2.81663029 0 0 Z " fill="#323232" transform="translate(1047,374)"/>
<path d="M0 0 C3.11198065 1.49836105 6.0534615 3.19933758 9 5 C8.25 10.75 8.25 10.75 6 13 C2.80769442 12.83198392 1.20713192 12.15262352 -1.375 10.25 C-3 8 -3 8 -2.875 5.4375 C-2 3 -2 3 0 0 Z " fill="#323232" transform="translate(1155,366)"/>
</svg>
